<svg xmlns="http://www.w3.org/2000/svg" xmlns:xlink="http://www.w3.org/1999/xlink" width="115" height="125" viewBox="0 0 115 125" fill="none"><defs><filter id="filter_0" x="-4" y="-4" width="114.8300000000005" height="124.2300000000002" filterUnits="userSpaceOnUse" color-interpolation-filters="sRGB"><feFlood flood-opacity="0" result="BackgroundImageFix"/>
          <feColorMatrix in="SourceAlpha" type="matrix" values="0 0 0 0 0 0 0 0 0 0 0 0 0 0 0 0 0 0 127 0"/>
          <feOffset dx="0" dy="2"/>
          <feGaussianBlur stdDeviation="2"/>
          <feColorMatrix type="matrix" values="0 0 0 0 0 0 0 0 0 0 0 0 0 0 0 0 0 0 0.25 0"/>
          <feBlend mode="normal" in2="BackgroundImageFix" result="effect1_Shadow"/>
          <feBlend mode="normal" in="SourceGraphic" in2="effect1_Shadow" result="shape"/></filter><linearGradient id="linear_0" x1="-10.729340101049251%" y1="11.65946413137416%" x2="134.51668810492697%" y2="102.68798617113215%" gradientUnits="objectBoundingBox"><stop offset="0" stop-color="#8F63F2" stop-opacity="1" /><stop offset="1" stop-color="#30C7CF" stop-opacity="1" /></linearGradient><linearGradient id="linear_1" x1="18.646447627071346%" y1="-20.354642120881994%" x2="117.23298698867349%" y2="136.46693126399595%" gradientUnits="objectBoundingBox"><stop offset="0" stop-color="#8F63F2" stop-opacity="1" /><stop offset="1" stop-color="#30C7CF" stop-opacity="1" /></linearGradient><linearGradient id="linear_2" x1="49.70000000000027%" y1="96.08408903544911%" x2="50.70000000000027%" y2="10.387469084913366%" gradientUnits="objectBoundingBox"><stop offset="0" stop-color="#FFFFFF" stop-opacity="1" /><stop offset="1" stop-color="#272525" stop-opacity="1" /></linearGradient></defs><g opacity="1" transform="translate(3.9999853515621453 1.999970703124859)  rotate(0 53.41500000000025 58.1150000000001)"><g id="undefined" filter="url(#filter_0)"></g><path id="路径" fill-rule="evenodd" fill="url(#linear_0)" transform="translate(0.02000000000043656 0.5300000000002001)  rotate(0 36.255724614597966 57.84999999999995)" opacity="1" d="M43.43,72.05C41.81,71.04 39.76,71.04 38.14,72.05C36.52,73.05 35.62,74.89 35.81,76.79L35.81,110.7C35.81,113.47 38.05,115.7 40.81,115.7L67.51,115.7C70.27,115.7 72.51,113.47 72.51,110.7L72.51,62.59C72.53,61.59 72.26,60.62 71.72,59.77L36.24,2.23L35.79,1.56L35.09,0.94L34.48,0.53L34.23,0.4L33.61,0.15L32.86,0L5,0C2.24,0 0,2.23 0,5C0,7.76 2.24,10 5,10L29.27,10L62.55,64.01L62.55,105.72L45.76,105.72L45.76,76.79C45.95,74.89 45.04,73.05 43.43,72.05Z " /><path id="路径" fill-rule="evenodd" fill="url(#linear_1)" transform="translate(-1.13686837721616e-13 2.273736754432321e-13)  rotate(0 53.41500000000025 33.57956361702844)" opacity="1" d="M10,6.87C10,4.11 7.77,1.87 5,1.87C2.24,1.87 0,4.11 0,6.87L0,14.47C0.4,43.69 24.2,67.16 53.42,67.16C82.63,67.16 106.43,43.69 106.83,14.47L106.83,6.65L106.77,5.89C106.81,5.65 106.83,5.17 106.83,5.17C106.83,2.41 104.59,0.17 101.83,0.17L68.35,0L67.78,0L66.61,0.25L66.34,0.35L65.49,0.8L65.11,1.09L64.57,1.63L64.45,1.77L64.11,2.47L63.8,3.12L63.64,3.78L63.59,4.51C63.59,5.1 63.59,5.32 63.59,5.32C63.59,5.32 63.59,5.69 63.59,5.79L63.7,6.47L63.96,7.12L77.72,31.24C78.62,32.79 80.26,33.73 82.03,33.74C83.81,33.72 85.43,32.77 86.31,31.25C87.19,29.72 87.22,27.84 86.35,26.3L77.02,9.98L96.92,10.08L96.92,14.47C96.92,38.48 77.46,57.93 53.46,57.93C29.45,57.93 10,38.48 10,14.47L10,6.87Z " /><path id="路径" fill-rule="evenodd" fill="url(#linear_2)" transform="translate(62.53000000000031 64.35000000000025)  rotate(0 5 12.129999999999995)" opacity="1" d="M10,24.26L10,0C6.76,1.23 3.41,2.15 0,2.74L0,24.26L10,24.26Z " /></g></svg>