<?xml version="1.0" standalone="no"?><!DOCTYPE svg PUBLIC "-//W3C//DTD SVG 1.1//EN" "http://www.w3.org/Graphics/SVG/1.1/DTD/svg11.dtd"><svg t="1673617658889" class="icon" viewBox="0 0 1024 1024" version="1.1" xmlns="http://www.w3.org/2000/svg" p-id="3158" xmlns:xlink="http://www.w3.org/1999/xlink" width="200" height="200"><path d="M320 0 128 0C57.6 0 0 57.6 0 128l0 192c0 70.4 57.6 128 128 128l192 0c70.4 0 128-57.6 128-128L448 128C448 57.6 390.4 0 320 0zM320 256c0 38.4-25.6 64-64 64L192 320C153.6 320 128 294.4 128 256L128 192c0-38.4 25.6-64 64-64l64 0c38.4 0 64 25.6 64 64L320 256z" p-id="3159"></path><path d="M320 576 128 576c-70.4 0-128 57.6-128 128l0 192c0 70.4 57.6 128 128 128l192 0c70.4 0 128-57.6 128-128l0-192C448 633.6 390.4 576 320 576zM320 832c0 38.4-25.6 64-64 64L192 896c-38.4 0-64-25.6-64-64l0-64c0-38.4 25.6-64 64-64l64 0c38.4 0 64 25.6 64 64L320 832z" p-id="3160"></path><path d="M896 0l-192 0C633.6 0 576 57.6 576 128l0 192c0 70.4 57.6 128 128 128l192 0c70.4 0 128-57.6 128-128L1024 128C1024 57.6 966.4 0 896 0zM896 256c0 38.4-25.6 64-64 64l-64 0c-38.4 0-64-25.6-64-64L704 192c0-38.4 25.6-64 64-64l64 0c38.4 0 64 25.6 64 64L896 256z" p-id="3161"></path><path d="M896 576l-192 0c-70.4 0-128 57.6-128 128l0 192c0 70.4 57.6 128 128 128l192 0c70.4 0 128-57.6 128-128l0-192C1024 633.6 966.4 576 896 576zM896 832c0 38.4-25.6 64-64 64l-64 0c-38.4 0-64-25.6-64-64l0-64c0-38.4 25.6-64 64-64l64 0c38.4 0 64 25.6 64 64L896 832z" p-id="3162"></path></svg>